<?xml version="1.0" standalone="no"?>
<!DOCTYPE svg PUBLIC "-//W3C//DTD SVG 20010904//EN"
 "http://www.w3.org/TR/2001/REC-SVG-20010904/DTD/svg10.dtd">
<svg version="1.0" xmlns="http://www.w3.org/2000/svg"
 width="184.000000pt" height="184.000000pt" viewBox="0 0 184.000000 184.000000"
 preserveAspectRatio="xMidYMid meet">
<metadata>
Created by potrace 1.11, written by Peter Selinger 2001-2013
</metadata>
<g transform="translate(0.000000,184.000000) scale(0.100000,-0.100000)"
fill="#000000" stroke="none">
<path d="M728 1820 c-173 -36 -323 -116 -448 -240 -129 -127 -205 -256 -252
-427 -31 -111 -31 -352 0 -465 81 -296 286 -524 565 -628 110 -41 172 -53 302
-56 144 -3 203 5 315 43 236 80 422 238 530 453 50 98 60 129 86 259 19 100
13 290 -15 393 -82 311 -312 553 -616 646 -143 44 -319 53 -467 22z"/>
</g>
</svg>
